<svg width="21" height="20" viewBox="0 0 21 20" fill="none" xmlns="http://www.w3.org/2000/svg">
<g clip-path="url(#clip0_1928_580)">
<path d="M4.66667 14.9998V16.6665H8V14.9998H4.66667ZM3 5.83317L6.33333 1.6665L9.66667 5.83317V18.3332H3V5.83317ZM18 6.6665H16.3333V8.33317H18V9.99984H15.5V11.6665H18V13.3332H16.3333V14.9998H18V17.4998C18 17.7209 17.9122 17.9328 17.7559 18.0891C17.5996 18.2454 17.3877 18.3332 17.1667 18.3332H12.1667C11.9457 18.3332 11.7337 18.2454 11.5774 18.0891C11.4211 17.9328 11.3333 17.7209 11.3333 17.4998V4.1665C11.3333 3.94549 11.4211 3.73353 11.5774 3.57725C11.7337 3.42097 11.9457 3.33317 12.1667 3.33317H17.1667C17.3877 3.33317 17.5996 3.42097 17.7559 3.57725C17.9122 3.73353 18 3.94549 18 4.1665V6.6665Z" fill="white"/>
</g>
<defs>
<clipPath id="clip0_1928_580">
<rect width="20" height="20" fill="white" transform="translate(0.5)"/>
</clipPath>
</defs>
</svg>
