<svg width="17" height="16" viewBox="0 0 17 16" fill="none" xmlns="http://www.w3.org/2000/svg">
<g clip-path="url(#clip0_1509_995)">
<path d="M7.7334 1.33325C11.0454 1.33325 13.7334 4.02125 13.7334 7.33325C13.7334 10.6453 11.0454 13.3333 7.7334 13.3333C4.4214 13.3333 1.7334 10.6453 1.7334 7.33325C1.7334 4.02125 4.4214 1.33325 7.7334 1.33325ZM7.7334 11.9999C10.3114 11.9999 12.4001 9.91125 12.4001 7.33325C12.4001 4.75459 10.3114 2.66659 7.7334 2.66659C5.15473 2.66659 3.06673 4.75459 3.06673 7.33325C3.06673 9.91125 5.15473 11.9999 7.7334 11.9999ZM13.3901 12.0473L15.2761 13.9326L14.3327 14.8759L12.4474 12.9899L13.3901 12.0473Z" fill="white"/>
</g>
<defs>
<clipPath id="clip0_1509_995">
<rect width="16" height="16" fill="white" transform="translate(0.400024)"/>
</clipPath>
</defs>
</svg>
