<svg width="17" height="16" viewBox="0 0 17 16" fill="none" xmlns="http://www.w3.org/2000/svg">
<g clip-path="url(#clip0_1509_1500)">
<path d="M9.39998 14V15.3333H8.06665V14H2.73332C2.55651 14 2.38694 13.9298 2.26191 13.8047C2.13689 13.6797 2.06665 13.5101 2.06665 13.3333V2.66667C2.06665 2.48986 2.13689 2.32029 2.26191 2.19526C2.38694 2.07024 2.55651 2 2.73332 2H6.73332C7.11171 1.99955 7.48584 2.07984 7.83073 2.2355C8.17562 2.39116 8.48333 2.61861 8.73332 2.90267C8.9833 2.61861 9.29101 2.39116 9.6359 2.2355C9.98079 2.07984 10.3549 1.99955 10.7333 2H14.7333C14.9101 2 15.0797 2.07024 15.2047 2.19526C15.3297 2.32029 15.4 2.48986 15.4 2.66667V13.3333C15.4 13.5101 15.3297 13.6797 15.2047 13.8047C15.0797 13.9298 14.9101 14 14.7333 14H9.39998ZM14.0667 12.6667V3.33334H10.7333C10.3797 3.33334 10.0406 3.47381 9.79051 3.72386C9.54046 3.97391 9.39998 4.31305 9.39998 4.66667V12.6667H14.0667ZM8.06665 12.6667V4.66667C8.06665 4.31305 7.92617 3.97391 7.67613 3.72386C7.42608 3.47381 7.08694 3.33334 6.73332 3.33334H3.39998V12.6667H8.06665Z" fill="white"/>
</g>
<defs>
<clipPath id="clip0_1509_1500">
<rect width="16" height="16" fill="white" transform="translate(0.733337)"/>
</clipPath>
</defs>
</svg>
