<svg width="21" height="20" viewBox="0 0 21 20" fill="none" xmlns="http://www.w3.org/2000/svg">
<g clip-path="url(#clip0_1509_6387)">
<path d="M12.4733 3.66504L9.56996 8.6942L11.0133 9.52754L13.9166 4.49837C17.3916 6.80837 19.1716 10.3984 17.7166 12.9167C16.1666 15.6017 11.7258 15.7125 7.79163 13.4417C3.85746 11.1684 1.73329 7.26754 3.28329 4.58337C4.73746 2.06421 8.73579 1.81087 12.4733 3.66504ZM13.7366 1.47754L15.18 2.31087L13.93 4.47587L12.4866 3.64254L13.7366 1.47754ZM6.10996 16.6667H14.6666V18.3334H4.68079C4.53204 18.3363 4.38523 18.2992 4.25577 18.2259C4.1263 18.1526 4.01895 18.0458 3.94496 17.9167C3.87222 17.7899 3.83395 17.6462 3.83395 17.5C3.83395 17.3538 3.87222 17.2102 3.94496 17.0834L5.81996 13.8359L7.26329 14.6692L6.10996 16.6667Z" fill="white"/>
</g>
<defs>
<clipPath id="clip0_1509_6387">
<rect width="20" height="20" fill="white" transform="translate(0.5)"/>
</clipPath>
</defs>
</svg>
