<svg width="16" height="16" viewBox="0 0 16 16" fill="none" xmlns="http://www.w3.org/2000/svg">
<g clip-path="url(#clip0_1085_30331)">
<path d="M11.3333 2.00002H13.9999C14.1767 2.00002 14.3463 2.07026 14.4713 2.19528C14.5963 2.32031 14.6666 2.48988 14.6666 2.66669V13.3334C14.6666 13.5102 14.5963 13.6797 14.4713 13.8048C14.3463 13.9298 14.1767 14 13.9999 14H1.99992C1.82311 14 1.65354 13.9298 1.52851 13.8048C1.40349 13.6797 1.33325 13.5102 1.33325 13.3334V2.66669C1.33325 2.48988 1.40349 2.32031 1.52851 2.19528C1.65354 2.07026 1.82311 2.00002 1.99992 2.00002H4.66659V0.666687H5.99992V2.00002H9.99992V0.666687H11.3333V2.00002ZM9.99992 3.33335H5.99992V4.66669H4.66659V3.33335H2.66659V6.00002H13.3333V3.33335H11.3333V4.66669H9.99992V3.33335ZM13.3333 7.33335H2.66659V12.6667H13.3333V7.33335Z" fill="black"/>
</g>
<defs>
<clipPath id="clip0_1085_30331">
<rect width="16" height="16" fill="white"/>
</clipPath>
</defs>
</svg>
