<svg width="25" height="24" viewBox="0 0 25 24" fill="none" xmlns="http://www.w3.org/2000/svg">
<path d="M6.05698 18.185C3.95798 16.677 2.59998 14.4 2.59998 11.908C2.59998 7.32298 7.07498 3.59998 12.6 3.59998C18.125 3.59998 22.6 7.32298 22.6 11.908C22.6 16.492 18.125 20.215 12.6 20.215C11.4927 20.2216 10.3903 20.0663 9.32798 19.754C9.23598 19.724 9.11198 19.724 9.01998 19.724C8.83498 19.724 8.64998 19.784 8.49498 19.877L6.30398 21.138C6.24773 21.1722 6.18451 21.1934 6.11898 21.2C6.02931 21.1995 5.94343 21.1637 5.87984 21.1005C5.81624 21.0373 5.78002 20.9516 5.77898 20.862C5.77898 20.769 5.80898 20.708 5.84098 20.615C5.87098 20.585 6.14898 19.569 6.30398 18.954C6.30398 18.892 6.33398 18.8 6.33398 18.738C6.33398 18.492 6.24198 18.308 6.05698 18.185ZM9.26698 10.511C9.98398 10.511 10.552 9.94298 10.552 9.22598C10.552 8.50798 9.98398 7.93998 9.26698 7.93998C8.54898 7.93998 7.98198 8.50798 7.98198 9.22598C7.98198 9.94298 8.54898 10.511 9.26698 10.511ZM15.933 10.511C16.651 10.511 17.218 9.94298 17.218 9.22598C17.218 8.50798 16.651 7.93998 15.933 7.93998C15.216 7.93998 14.648 8.50798 14.648 9.22598C14.648 9.94298 15.216 10.511 15.933 10.511Z" fill="white"/>
</svg>
