<svg width="16" height="16" viewBox="0 0 16 16" fill="none" xmlns="http://www.w3.org/2000/svg">
<path d="M5.7779 7.674C5.66518 7.6748 5.55342 7.65318 5.44913 7.61041C5.34483 7.56764 5.25008 7.50457 5.17037 7.42487C5.09066 7.34516 5.02759 7.2504 4.98482 7.14611C4.94205 7.04181 4.92044 6.93005 4.92124 6.81733C4.92124 6.33867 5.29924 5.96 5.7779 5.96C6.2559 5.96 6.63457 6.33867 6.63457 6.81733C6.63457 7.29533 6.2559 7.674 5.7779 7.674ZM10.2219 7.674C10.1092 7.6748 9.99743 7.65318 9.89313 7.61041C9.78883 7.56764 9.69408 7.50457 9.61437 7.42487C9.53466 7.34516 9.47159 7.2504 9.42882 7.14611C9.38605 7.04181 9.36444 6.93005 9.36524 6.81733C9.36524 6.33867 9.7439 5.96 10.2219 5.96C10.7006 5.96 11.0786 6.33867 11.0786 6.81733C11.0786 7.29533 10.7006 7.674 10.2219 7.674ZM4.54857 12.81L5.02524 12.5193C5.56499 12.1902 6.2041 12.0636 6.82857 12.162C6.9699 12.184 7.0859 12.2013 7.17524 12.2127C7.4459 12.2487 7.7219 12.2667 7.9999 12.2667C10.9466 12.2667 13.2666 10.252 13.2666 7.86666C13.2666 5.48133 10.9466 3.46666 7.9999 3.46666C5.05324 3.46666 2.73324 5.48133 2.73324 7.86666C2.73324 8.77733 3.06657 9.64866 3.6879 10.3873C3.7199 10.4253 3.7679 10.4787 3.83057 10.544C4.09262 10.8169 4.29359 11.1424 4.42015 11.499C4.5467 11.8556 4.59593 12.235 4.56457 12.612L4.5479 12.81H4.54857ZM4.12857 14.628C4.02371 14.6936 3.90267 14.7287 3.77898 14.7295C3.6553 14.7302 3.53384 14.6965 3.4282 14.6322C3.32257 14.5679 3.23691 14.4754 3.18081 14.3652C3.12472 14.2549 3.1004 14.1313 3.11057 14.008L3.2359 12.5013C3.25163 12.3128 3.22706 12.1231 3.16384 11.9449C3.10063 11.7666 3.0002 11.6038 2.86924 11.4673C2.79931 11.3955 2.73172 11.3215 2.66657 11.2453C1.87057 10.298 1.3999 9.13 1.3999 7.86666C1.3999 4.7 4.35457 2.13333 7.9999 2.13333C11.6452 2.13333 14.5999 4.7 14.5999 7.86666C14.5999 11.0333 11.6452 13.6 7.9999 13.6C7.6599 13.6 7.32657 13.578 7.00057 13.5347C6.8739 13.5175 6.74745 13.4989 6.62124 13.4787C6.3089 13.4294 5.98921 13.4927 5.71924 13.6573L4.1279 14.628H4.12857Z" fill="black"/>
</svg>
