<svg width="56" height="65" viewBox="0 0 56 65" fill="none" xmlns="http://www.w3.org/2000/svg">
<path d="M0.821472 4.05296C0.821472 2.15941 2.3565 0.62439 4.25004 0.62439H35.1072L55.6786 21.1958V61.1958C55.6786 63.0894 54.1436 64.6244 52.25 64.6244H4.25004C2.3565 64.6244 0.821472 63.0894 0.821472 61.1958V4.05296Z" fill="url(#paint0_linear_1159_3591)"/>
<path d="M35.1072 17.7673V0.62439L55.6786 21.1958H38.5358C36.6422 21.1958 35.1072 19.6608 35.1072 17.7673Z" fill="#255EBA"/>
<path d="M15.9684 46.5307C15.211 46.5307 14.5124 46.392 13.8724 46.1147C13.243 45.8267 12.7257 45.4213 12.3204 44.8987L13.7604 43.1707C14.0697 43.576 14.395 43.8853 14.7364 44.0987C15.0777 44.3013 15.4457 44.4027 15.8404 44.4027C16.8964 44.4027 17.4244 43.784 17.4244 42.5467V37.2187H13.4884V35.1387H20.0004V42.4027C20.0004 43.7893 19.659 44.824 18.9764 45.5067C18.2937 46.1893 17.291 46.5307 15.9684 46.5307Z" fill="white"/>
<path d="M23.0178 46.3387V35.1387H27.8658C28.8684 35.1387 29.7324 35.304 30.4578 35.6347C31.1831 35.9547 31.7431 36.4187 32.1378 37.0267C32.5324 37.6347 32.7298 38.36 32.7298 39.2027C32.7298 40.0347 32.5324 40.7547 32.1378 41.3627C31.7431 41.9707 31.1831 42.44 30.4578 42.7707C29.7324 43.0907 28.8684 43.2507 27.8658 43.2507H24.4578L25.6098 42.0827V46.3387H23.0178ZM25.6098 42.3707L24.4578 41.1387H27.7218C28.5218 41.1387 29.1191 40.968 29.5138 40.6267C29.9084 40.2853 30.1058 39.8107 30.1058 39.2027C30.1058 38.584 29.9084 38.104 29.5138 37.7627C29.1191 37.4213 28.5218 37.2507 27.7218 37.2507H24.4578L25.6098 36.0187V42.3707Z" fill="white"/>
<path d="M40.6017 46.5307C39.7163 46.5307 38.9003 46.392 38.1537 46.1147C37.4177 45.8267 36.7723 45.4213 36.2177 44.8987C35.6737 44.376 35.247 43.7627 34.9377 43.0587C34.639 42.3547 34.4897 41.5813 34.4897 40.7387C34.4897 39.896 34.639 39.1227 34.9377 38.4187C35.247 37.7147 35.679 37.1013 36.2337 36.5787C36.7883 36.056 37.439 35.656 38.1857 35.3787C38.9323 35.0907 39.7537 34.9467 40.6497 34.9467C41.6417 34.9467 42.5323 35.112 43.3217 35.4427C44.1217 35.7733 44.7937 36.2533 45.3377 36.8827L43.6737 38.4187C43.2683 37.992 42.8257 37.6773 42.3457 37.4747C41.8657 37.2613 41.343 37.1547 40.7777 37.1547C40.2337 37.1547 39.7377 37.24 39.2897 37.4107C38.8417 37.5813 38.4523 37.8267 38.1217 38.1467C37.8017 38.4667 37.551 38.8453 37.3697 39.2827C37.199 39.72 37.1137 40.2053 37.1137 40.7387C37.1137 41.2613 37.199 41.7413 37.3697 42.1787C37.551 42.616 37.8017 43 38.1217 43.3307C38.4523 43.6507 38.8363 43.896 39.2737 44.0667C39.7217 44.2373 40.2123 44.3227 40.7457 44.3227C41.2577 44.3227 41.7537 44.2427 42.2337 44.0827C42.7243 43.912 43.199 43.6293 43.6577 43.2347L45.1297 45.1067C44.5217 45.5653 43.8123 45.9173 43.0017 46.1627C42.2017 46.408 41.4017 46.5307 40.6017 46.5307ZM42.7617 44.7707V40.5627H45.1297V45.1067L42.7617 44.7707Z" fill="white"/>
<defs>
<linearGradient id="paint0_linear_1159_3591" x1="28.25" y1="0.62439" x2="28.25" y2="64.6244" gradientUnits="userSpaceOnUse">
<stop stop-color="#69A1FA"/>
<stop offset="1" stop-color="#4B86E4"/>
</linearGradient>
</defs>
</svg>
