<svg width="21" height="21" viewBox="0 0 21 21" fill="none" xmlns="http://www.w3.org/2000/svg">
<path d="M2.51258 12.897L3.21032 12.3143L2.51258 12.897C2.76871 13.2037 2.89313 13.601 2.85743 13.9965L2.84467 14.1378C2.70308 15.7058 3.73884 17.1384 5.27225 17.4954C5.63638 17.5801 5.94842 17.8134 6.13276 18.1387L6.17915 18.2205C6.96544 19.6079 8.67733 20.1704 10.1333 19.5199C10.4645 19.3719 10.8431 19.3719 11.1743 19.5199C12.6303 20.1704 14.3422 19.6079 15.1285 18.2205L15.1748 18.1387L14.384 17.6904L15.1749 18.1387C15.3592 17.8134 15.6712 17.5801 16.0354 17.4954C17.5688 17.1384 18.6045 15.7058 18.4629 14.1378L18.4502 13.9965C18.4145 13.601 18.5389 13.2037 18.795 12.897C19.8309 11.6568 19.8309 9.84325 18.795 8.60298L18.0973 9.18574L18.795 8.60297C18.5389 8.29632 18.4145 7.89899 18.4502 7.50352L18.4629 7.3622C18.6045 5.79416 17.5688 4.36161 16.0354 4.00463C15.6712 3.91986 15.3592 3.68658 15.1749 3.36132L15.1285 3.27948C14.3422 1.89214 12.6303 1.32958 11.1743 1.98007L11.5413 2.80154L11.1743 1.98007C10.8431 2.12806 10.4645 2.12806 10.1333 1.98007C8.67732 1.32958 6.96544 1.89214 6.17915 3.27948L6.97005 3.72773L6.17915 3.27948L6.13276 3.36132C6.13276 3.36132 6.13276 3.36132 6.13276 3.36133C5.94842 3.68658 5.63638 3.91986 5.27225 4.00463C3.73884 4.36161 2.70308 5.79416 2.84467 7.3622L2.85743 7.50352C2.89313 7.89899 2.76871 8.29632 2.51258 8.60297C1.47667 9.84325 1.47667 11.6568 2.51258 12.897Z" fill="#6938EF" stroke="white" stroke-width="1.81819"/>
<g clip-path="url(#clip0_1439_3855)">
<path d="M11.2429 8.07162L11.7682 7.05664H9.5542L10.0796 8.07162H11.2429Z" fill="white"/>
<path d="M11.2097 8.36768H10.1125L9.30726 12.9173C9.28901 13.0195 9.31663 13.1246 9.3829 13.2044L10.3838 14.4255C10.4521 14.5085 10.5539 14.5565 10.6613 14.5563C10.7688 14.5561 10.8704 14.5078 10.9384 14.4246L11.9394 13.2022C12.0055 13.1232 12.0332 13.0188 12.015 12.9174L11.2097 8.36768Z" fill="white"/>
</g>
<defs>
<clipPath id="clip0_1439_3855">
<rect width="7.5" height="7.5" fill="white" transform="translate(6.90381 7.05664)"/>
</clipPath>
</defs>
</svg>
