<svg width="24" height="25" viewBox="0 0 24 25" fill="none" xmlns="http://www.w3.org/2000/svg">
<path d="M2 20.6244V6.62439C2 5.51982 2.89543 4.62439 4 4.62439H7.17157C7.70201 4.62439 8.21071 4.8351 8.58579 5.21018L9.41421 6.0386C9.78929 6.41368 10.298 6.62439 10.8284 6.62439H18C19.1046 6.62439 20 7.51982 20 8.62439V10.6244M2.09655 20.3026L4.57241 12.0497C4.8262 11.2037 5.60484 10.6244 6.48806 10.6244H19.4384C20.7396 10.6244 21.6943 11.8472 21.3787 13.1095L19.8787 19.1095C19.6561 19.9998 18.8562 20.6244 17.9384 20.6244H2.33601C2.16854 20.6244 2.04843 20.463 2.09655 20.3026Z" stroke="#858C95" stroke-width="1.67" stroke-linecap="round"/>
</svg>
