<svg width="16" height="16" viewBox="0 0 16 16" fill="none" xmlns="http://www.w3.org/2000/svg">
<g clip-path="url(#clip0_1085_30304)">
<path d="M4.66659 7.33334C4.27262 7.33334 3.88251 7.25575 3.51854 7.10498C3.15456 6.95422 2.82384 6.73324 2.54526 6.45466C2.26669 6.17609 2.04571 5.84537 1.89495 5.48139C1.74418 5.11742 1.66659 4.72731 1.66659 4.33334C1.66659 3.93938 1.74418 3.54927 1.89495 3.18529C2.04571 2.82132 2.26669 2.4906 2.54526 2.21202C2.82384 1.93345 3.15456 1.71247 3.51854 1.5617C3.88251 1.41094 4.27262 1.33334 4.66659 1.33334C5.46223 1.33334 6.2253 1.64941 6.78791 2.21202C7.35051 2.77463 7.66659 3.53769 7.66659 4.33334C7.66659 5.12899 7.35051 5.89205 6.78791 6.45466C6.2253 7.01727 5.46223 7.33334 4.66659 7.33334ZM11.6666 10C10.9593 10 10.2811 9.71906 9.78097 9.21896C9.28087 8.71886 8.99992 8.04059 8.99992 7.33334C8.99992 6.6261 9.28087 5.94782 9.78097 5.44773C10.2811 4.94763 10.9593 4.66668 11.6666 4.66668C12.3738 4.66668 13.0521 4.94763 13.5522 5.44773C14.0523 5.94782 14.3333 6.6261 14.3333 7.33334C14.3333 8.04059 14.0523 8.71886 13.5522 9.21896C13.0521 9.71906 12.3738 10 11.6666 10ZM11.6666 10.6667C12.4622 10.6667 13.2253 10.9827 13.7879 11.5454C14.3505 12.108 14.6666 12.871 14.6666 13.6667V14H8.66659V13.6667C8.66659 12.871 8.98266 12.108 9.54527 11.5454C10.1079 10.9827 10.8709 10.6667 11.6666 10.6667ZM4.66659 8.00001C5.10433 8.00001 5.53778 8.08623 5.9422 8.25375C6.34662 8.42126 6.71408 8.66679 7.02361 8.97632C7.33314 9.28585 7.57867 9.65331 7.74618 10.0577C7.9137 10.4622 7.99992 10.8956 7.99992 11.3333V14H1.33325V11.3333C1.33325 10.4493 1.68444 9.60144 2.30956 8.97632C2.93468 8.3512 3.78253 8.00001 4.66659 8.00001Z" fill="black"/>
</g>
<defs>
<clipPath id="clip0_1085_30304">
<rect width="16" height="16" fill="white"/>
</clipPath>
</defs>
</svg>
