<svg width="17" height="16" viewBox="0 0 17 16" fill="none" xmlns="http://www.w3.org/2000/svg">
<g clip-path="url(#clip0_1066_691)">
<path d="M8.50016 14.6667C4.81816 14.6667 1.8335 11.682 1.8335 8C1.8335 4.318 4.81816 1.33333 8.50016 1.33333C12.1822 1.33333 15.1668 4.318 15.1668 8C15.1668 11.682 12.1822 14.6667 8.50016 14.6667ZM8.50016 13.3333C9.91465 13.3333 11.2712 12.7714 12.2714 11.7712C13.2716 10.771 13.8335 9.41448 13.8335 8C13.8335 6.58551 13.2716 5.22895 12.2714 4.22876C11.2712 3.22856 9.91465 2.66666 8.50016 2.66666C7.08567 2.66666 5.72912 3.22856 4.72893 4.22876C3.72873 5.22895 3.16683 6.58551 3.16683 8C3.16683 9.41448 3.72873 10.771 4.72893 11.7712C5.72912 12.7714 7.08567 13.3333 8.50016 13.3333ZM8.50016 10C7.96973 10 7.46102 9.78928 7.08595 9.41421C6.71088 9.03914 6.50016 8.53043 6.50016 8C6.50016 7.46956 6.71088 6.96085 7.08595 6.58578C7.46102 6.21071 7.96973 6 8.50016 6C9.0306 6 9.5393 6.21071 9.91438 6.58578C10.2894 6.96085 10.5002 7.46956 10.5002 8C10.5002 8.53043 10.2894 9.03914 9.91438 9.41421C9.5393 9.78928 9.0306 10 8.50016 10Z" fill="black"/>
</g>
<defs>
<clipPath id="clip0_1066_691">
<rect width="16" height="16" fill="white" transform="translate(0.5)"/>
</clipPath>
</defs>
</svg>
