<svg width="21" height="21" viewBox="0 0 21 21" fill="none" xmlns="http://www.w3.org/2000/svg">
<path d="M2.51258 12.6468L3.21032 12.064L2.51258 12.6468C2.76871 12.9534 2.89313 13.3508 2.85743 13.7462L2.84467 13.8876C2.70308 15.4556 3.73884 16.8881 5.27225 17.2451C5.63638 17.3299 5.94842 17.5632 6.13276 17.8884L6.17915 17.9703C6.96544 19.3576 8.67733 19.9202 10.1333 19.2697C10.4645 19.1217 10.8431 19.1217 11.1743 19.2697C12.6303 19.9202 14.3422 19.3576 15.1285 17.9703L15.1748 17.8884L14.384 17.4402L15.1749 17.8884C15.3592 17.5632 15.6712 17.3299 16.0354 17.2451C17.5688 16.8881 18.6045 15.4556 18.4629 13.8876L18.4502 13.7462C18.4145 13.3508 18.5389 12.9534 18.795 12.6468C19.8309 11.4065 19.8309 9.593 18.795 8.35273L18.0973 8.9355L18.795 8.35273C18.5389 8.04607 18.4145 7.64874 18.4502 7.25328L18.4629 7.11196C18.6045 5.54392 17.5688 4.11137 16.0354 3.75438C15.6712 3.66961 15.3592 3.43634 15.1749 3.11108L15.1285 3.02924C14.3422 1.64189 12.6303 1.07934 11.1743 1.72983L11.5413 2.55129L11.1743 1.72983C10.8431 1.87782 10.4645 1.87782 10.1333 1.72983C8.67732 1.07934 6.96544 1.64189 6.17915 3.02923L6.97005 3.47749L6.17915 3.02924L6.13276 3.11108C6.13276 3.11108 6.13276 3.11108 6.13276 3.11108C5.94842 3.43634 5.63638 3.66961 5.27225 3.75438C3.73884 4.11137 2.70308 5.54391 2.84467 7.11196L2.85743 7.25328C2.89313 7.64874 2.76871 8.04607 2.51258 8.35273C1.47667 9.593 1.47667 11.4065 2.51258 12.6468Z" fill="black" stroke="white" stroke-width="1.81819"/>
<path d="M13.3121 11.1452V9.98392L10.8479 11.6011L10.7167 11.6871L10.5855 11.6011L8.12134 9.98392V11.1452L10.7167 12.8484L12.3886 11.7512V12.1517C12.1977 12.2317 12.0632 12.4232 12.0632 12.6469V13.5912H13.1117V12.6469C13.1117 12.4232 12.9772 12.2317 12.7863 12.1517V11.4902L13.3121 11.1452Z" fill="white"/>
<path d="M7.53516 9.31403L10.7172 11.4023L13.8992 9.31403L10.7172 7.2258L7.53516 9.31403Z" fill="white"/>
</svg>
