<svg width="24" height="24" viewBox="0 0 24 24" fill="none" xmlns="http://www.w3.org/2000/svg">
<path d="M21.4096 22.5904C21.7357 22.9165 22.2643 22.9165 22.5904 22.5904C22.9165 22.2643 22.9165 21.7357 22.5904 21.4096L21.4096 22.5904ZM17.6356 10.2353C17.6356 14.3224 14.3224 17.6356 10.2353 17.6356V19.3056C15.2447 19.3056 19.3056 15.2447 19.3056 10.2353H17.6356ZM10.2353 17.6356C6.14822 17.6356 2.835 14.3224 2.835 10.2353H1.165C1.165 15.2447 5.22591 19.3056 10.2353 19.3056V17.6356ZM2.835 10.2353C2.835 6.14822 6.14822 2.835 10.2353 2.835V1.165C5.22591 1.165 1.165 5.22591 1.165 10.2353H2.835ZM10.2353 2.835C14.3224 2.835 17.6356 6.14822 17.6356 10.2353H19.3056C19.3056 5.22591 15.2447 1.165 10.2353 1.165V2.835ZM15.5272 16.7081L21.4096 22.5904L22.5904 21.4096L16.7081 15.5272L15.5272 16.7081Z" fill="#858C95"/>
</svg>
