<svg width="17" height="16" viewBox="0 0 17 16" fill="none" xmlns="http://www.w3.org/2000/svg">
<g clip-path="url(#clip0_1577_251)">
<path d="M8.89983 8.39059L11.7285 11.2186L10.7852 12.1619L9.5665 10.9433V14.6666H8.23316V10.9419L7.0145 12.1619L6.07117 11.2186L8.89983 8.39059ZM8.89983 1.33325C10.0445 1.33331 11.1492 1.75399 12.004 2.51533C12.8587 3.27667 13.4039 4.32556 13.5358 5.46259C14.3653 5.6888 15.089 6.19932 15.5803 6.90494C16.0716 7.61055 16.2993 8.46638 16.2236 9.32285C16.1479 10.1793 15.7736 10.9819 15.1662 11.5905C14.5588 12.199 13.7568 12.5747 12.9005 12.6519V11.3093C13.2073 11.2654 13.5023 11.161 13.7682 11.0019C14.0342 10.8428 14.2658 10.6324 14.4495 10.3829C14.6333 10.1333 14.7655 9.84967 14.8384 9.54848C14.9113 9.24729 14.9235 8.93459 14.8743 8.62863C14.8251 8.32267 14.7154 8.02959 14.5516 7.76649C14.3879 7.50338 14.1734 7.27553 13.9206 7.09623C13.6679 6.91693 13.3819 6.78978 13.0795 6.72219C12.7771 6.65461 12.4642 6.64794 12.1592 6.70259C12.2636 6.21651 12.2579 5.71323 12.1426 5.22962C12.0274 4.74601 11.8054 4.29431 11.4929 3.9076C11.1804 3.5209 10.7854 3.20899 10.3368 2.99472C9.8882 2.78044 9.39733 2.66923 8.90016 2.66923C8.403 2.66923 7.91213 2.78044 7.46352 2.99472C7.0149 3.20899 6.61989 3.5209 6.30743 3.9076C5.99497 4.29431 5.77297 4.74601 5.65769 5.22962C5.5424 5.71323 5.53676 6.21651 5.64117 6.70259C5.03294 6.58837 4.40424 6.72044 3.89339 7.06976C3.38255 7.41908 3.03139 7.95702 2.91717 8.56525C2.80295 9.17348 2.93502 9.80217 3.28434 10.313C3.63366 10.8239 4.1716 11.175 4.77983 11.2893L4.89983 11.3093V12.6519C4.04347 12.5748 3.24144 12.1992 2.63392 11.5907C2.02641 10.9822 1.65205 10.1796 1.57628 9.32314C1.50051 8.46665 1.72815 7.61077 2.21941 6.9051C2.71067 6.19943 3.4343 5.68884 4.26383 5.46259C4.39564 4.3255 4.94077 3.27653 5.79555 2.51516C6.65033 1.7538 7.75514 1.33316 8.89983 1.33325Z" fill="white"/>
</g>
<defs>
<clipPath id="clip0_1577_251">
<rect width="16" height="16" fill="white" transform="translate(0.899902)"/>
</clipPath>
</defs>
</svg>
