<svg width="17" height="16" viewBox="0 0 17 16" fill="none" xmlns="http://www.w3.org/2000/svg">
<g clip-path="url(#clip0_1066_685)">
<path d="M12.8825 9.14067C13.0406 9.1386 13.1917 9.07486 13.3035 8.96303C13.4154 8.8512 13.4791 8.70013 13.4812 8.542C13.4812 8.21 13.2152 7.94333 12.8825 7.94333C12.5498 7.94333 12.2838 8.21 12.2838 8.542C12.2838 8.87533 12.5505 9.14067 12.8825 9.14067ZM9.9325 9.14067C10.0906 9.1386 10.2417 9.07486 10.3535 8.96303C10.4654 8.8512 10.5291 8.70013 10.5312 8.542C10.5312 8.21 10.2645 7.94333 9.9325 7.94333C9.59917 7.94333 9.33384 8.21 9.33384 8.542C9.33384 8.87533 9.59984 9.14067 9.9325 9.14067ZM14.3105 12.5007C14.2678 12.5244 14.2337 12.5611 14.2131 12.6054C14.1925 12.6497 14.1864 12.6994 14.1958 12.7473C14.1958 12.7793 14.1958 12.812 14.2125 12.8453C14.2778 13.1233 14.4085 13.566 14.4085 13.5827C14.4085 13.6313 14.4252 13.664 14.4252 13.6973C14.4252 13.7167 14.4214 13.7358 14.4139 13.7536C14.4065 13.7715 14.3957 13.7877 14.382 13.8013C14.3683 13.8149 14.352 13.8257 14.3342 13.833C14.3163 13.8404 14.2972 13.8441 14.2778 13.844C14.2445 13.844 14.2285 13.828 14.1958 13.812L13.2298 13.2547C13.1593 13.2158 13.0809 13.1935 13.0005 13.1893C12.9518 13.1893 12.9025 13.1893 12.8698 13.2053C12.4112 13.3367 11.9365 13.402 11.4292 13.402C8.98917 13.402 7.0245 11.764 7.0245 9.732C7.0245 7.70067 8.98917 6.062 11.4292 6.062C13.8685 6.062 15.8332 7.70067 15.8332 9.732C15.8332 10.83 15.2438 11.8293 14.3105 12.5013V12.5007ZM11.6152 5.39933C11.553 5.39727 11.4907 5.39615 11.4285 5.396C8.64584 5.396 6.35784 7.30267 6.35784 9.73267C6.35784 10.102 6.41117 10.4593 6.50984 10.7993H6.4505C5.86801 10.7935 5.28882 10.711 4.72784 10.554C4.6785 10.5373 4.62917 10.5373 4.57984 10.5373C4.48131 10.5394 4.38513 10.5677 4.30117 10.6193L3.13584 11.2893C3.1025 11.306 3.06984 11.3227 3.03717 11.3227C2.98959 11.3221 2.94411 11.303 2.91047 11.2694C2.87682 11.2357 2.85769 11.1902 2.85717 11.1427C2.85717 11.0933 2.87317 11.0607 2.88984 11.0113C2.90584 10.9953 3.05384 10.4553 3.13584 10.1287C3.13584 10.0953 3.15184 10.0467 3.15184 10.014C3.15166 9.95685 3.13827 9.90052 3.11271 9.8494C3.08715 9.79828 3.05012 9.75377 3.0045 9.71933C1.87184 8.91733 1.1665 7.724 1.1665 6.39867C1.1665 3.96333 3.5465 2 6.4665 2C8.9765 2 11.0865 3.446 11.6152 5.39867V5.39933ZM8.17917 5.678C8.56117 5.678 8.86317 5.36 8.86317 4.994C8.86317 4.612 8.56117 4.31 8.17917 4.31C7.79717 4.31 7.49517 4.612 7.49517 4.994C7.49517 5.376 7.79717 5.678 8.17917 5.678ZM4.6725 5.678C5.0545 5.678 5.35717 5.36 5.35717 4.994C5.35717 4.612 5.0545 4.31 4.6725 4.31C4.29117 4.31 3.9885 4.612 3.9885 4.994C3.9885 5.376 4.29117 5.678 4.6725 5.678Z" fill="#6938EF"/>
</g>
<defs>
<clipPath id="clip0_1066_685">
<rect width="16" height="16" fill="white" transform="translate(0.5)"/>
</clipPath>
</defs>
</svg>
