<svg width="56" height="65" viewBox="0 0 56 65" fill="none" xmlns="http://www.w3.org/2000/svg">
<path d="M0.321472 4.05296C0.321472 2.15941 1.8565 0.62439 3.75004 0.62439H34.6072L55.1786 21.1958V61.1958C55.1786 63.0894 53.6436 64.6244 51.75 64.6244H3.75004C1.8565 64.6244 0.321472 63.0894 0.321472 61.1958V4.05296Z" fill="url(#paint0_linear_1159_3295)"/>
<path d="M34.6072 17.7673V0.62439L55.1786 21.1958H38.0358C36.1422 21.1958 34.6072 19.6608 34.6072 17.7673Z" fill="#21835A"/>
<path d="M15.1922 46.3387V44.6587L22.1202 36.3067L22.4402 37.2507H15.3202V35.1387H24.7442V36.8187L17.8322 45.1707L17.5122 44.2267H24.9842V46.3387H15.1922Z" fill="white"/>
<path d="M27.1037 46.3387V35.1387H29.6957V46.3387H27.1037Z" fill="white"/>
<path d="M32.8109 46.3387V35.1387H37.6589C38.6615 35.1387 39.5255 35.304 40.2509 35.6347C40.9762 35.9547 41.5362 36.4187 41.9309 37.0267C42.3255 37.6347 42.5229 38.36 42.5229 39.2027C42.5229 40.0347 42.3255 40.7547 41.9309 41.3627C41.5362 41.9707 40.9762 42.44 40.2509 42.7707C39.5255 43.0907 38.6615 43.2507 37.6589 43.2507H34.2509L35.4029 42.0827V46.3387H32.8109ZM35.4029 42.3707L34.2509 41.1387H37.5149C38.3149 41.1387 38.9122 40.968 39.3069 40.6267C39.7015 40.2853 39.8989 39.8107 39.8989 39.2027C39.8989 38.584 39.7015 38.104 39.3069 37.7627C38.9122 37.4213 38.3149 37.2507 37.5149 37.2507H34.2509L35.4029 36.0187V42.3707Z" fill="white"/>
<defs>
<linearGradient id="paint0_linear_1159_3295" x1="27.75" y1="0.62439" x2="27.75" y2="64.6244" gradientUnits="userSpaceOnUse">
<stop stop-color="#33B27C"/>
<stop offset="1" stop-color="#289B69"/>
</linearGradient>
</defs>
</svg>
